<svg id="Camada_1" data-name="Camada 1" xmlns="http://www.w3.org/2000/svg" viewBox="0 0 420.48 247.77"><defs><style>.cls-1{fill:#8c8e70;}.cls-2,.cls-3{fill:#020202;}.cls-3{font-size:60px;font-family:Orbitron-Black, Orbitron;font-weight:800;letter-spacing:0.2em;}.cls-4{letter-spacing:0.17em;}.cls-5{letter-spacing:0.24em;}</style></defs><polygon class="cls-1" points="311.86 5 306.18 5 309.02 0 311.86 5"/><polygon class="cls-1" points="319.84 19.02 298.2 19.02 301.06 14 316.98 14 319.84 19.02"/><polygon class="cls-1" points="327.81 33.03 290.23 33.03 293.08 28.02 324.96 28.02 327.81 33.03"/><polygon class="cls-1" points="335.78 47.05 282.26 47.05 285.11 42.03 332.93 42.03 335.78 47.05"/><polygon class="cls-1" points="343.75 61.06 274.29 61.06 277.14 56.05 340.9 56.05 343.75 61.06"/><polygon class="cls-1" points="351.72 75.08 266.32 75.08 269.17 70.06 348.87 70.06 351.72 75.08"/><polygon class="cls-1" points="359.69 89.09 258.35 89.09 261.2 84.08 356.84 84.08 359.69 89.09"/><polygon class="cls-1" points="367.67 103.11 250.37 103.11 253.23 98.09 364.81 98.09 367.67 103.11"/><polygon class="cls-1" points="375.63 117.12 242.41 117.12 245.26 112.11 372.78 112.11 375.63 117.12"/><polygon class="cls-1" points="383.61 131.14 234.43 131.14 237.29 126.12 380.75 126.12 383.61 131.14"/><polygon class="cls-1" points="391.58 145.15 226.46 145.15 229.31 140.14 388.73 140.14 391.58 145.15"/><polygon class="cls-1" points="402.04 159.17 217.49 159.17 220.39 154.15 399.13 154.15 402.04 159.17"/><polygon class="cls-1" points="211.36 154.15 208.51 159.17 198.27 159.17 195.42 154.15 211.36 154.15"/><polygon class="cls-1" points="219.33 140.14 216.48 145.15 190.3 145.15 187.45 140.14 219.33 140.14"/><polygon class="cls-1" points="227.31 126.12 224.45 131.14 182.33 131.14 179.47 126.12 227.31 126.12"/><polygon class="cls-1" points="235.28 112.11 232.43 117.12 174.35 117.12 171.5 112.11 235.28 112.11"/><polygon class="cls-1" points="243.25 98.09 240.39 103.11 166.39 103.11 163.53 98.09 243.25 98.09"/><polygon class="cls-1" points="251.22 84.08 248.37 89.09 158.41 89.09 155.56 84.08 251.22 84.08"/><polygon class="cls-1" points="259.19 70.06 256.34 75.08 150.44 75.08 147.59 70.06 259.19 70.06"/><polygon class="cls-1" points="267.16 56.05 264.31 61.06 142.47 61.06 139.62 56.05 267.16 56.05"/><polygon class="cls-1" points="275.13 42.03 272.28 47.05 134.5 47.05 131.65 42.03 275.13 42.03"/><polygon class="cls-1" points="283.1 28.02 280.25 33.03 126.53 33.03 123.68 28.02 283.1 28.02"/><polygon class="cls-1" points="291.08 14 288.22 19.02 118.56 19.02 115.7 14 291.08 14"/><polygon class="cls-1" points="299.04 0 296.2 5 110.58 5 107.74 0 299.04 0"/><polygon class="cls-2" points="193.39 168.17 98.04 168.17 92.92 159.17 188.27 159.17 193.39 168.17"/><polygon class="cls-2" points="185.42 154.15 90.07 154.15 84.95 145.15 180.3 145.15 185.42 154.15"/><polygon class="cls-2" points="177.45 140.14 82.1 140.14 76.98 131.14 172.33 131.14 177.45 140.14"/><polygon class="cls-2" points="169.47 126.12 74.12 126.12 69 117.12 164.35 117.12 169.47 126.12"/><polygon class="cls-2" points="161.5 112.11 66.15 112.11 61.04 103.11 156.39 103.11 161.5 112.11"/><polygon class="cls-2" points="153.53 98.09 58.18 98.09 53.06 89.09 148.41 89.09 153.53 98.09"/><polygon class="cls-2" points="145.56 84.08 50.21 84.08 45.09 75.08 140.44 75.08 145.56 84.08"/><polygon class="cls-2" points="137.59 70.06 42.24 70.06 37.12 61.06 132.47 61.06 137.59 70.06"/><polygon class="cls-2" points="129.62 56.05 34.27 56.05 29.15 47.05 124.5 47.05 129.62 56.05"/><polygon class="cls-2" points="121.65 42.03 26.3 42.03 21.18 33.03 116.53 33.03 121.65 42.03"/><polygon class="cls-2" points="113.68 28.02 18.33 28.02 13.21 19.02 108.56 19.02 113.68 28.02"/><polygon class="cls-2" points="105.7 14 10.35 14 5.23 5 100.58 5 105.7 14"/><polygon class="cls-2" points="313.86 159.17 308.74 168.17 213.39 168.17 218.51 159.17 313.86 159.17"/><polygon class="cls-2" points="321.83 145.15 316.71 154.15 221.36 154.15 226.48 145.15 321.83 145.15"/><polygon class="cls-2" points="329.8 131.14 324.68 140.14 229.33 140.14 234.45 131.14 329.8 131.14"/><polygon class="cls-2" points="337.78 117.12 332.66 126.12 237.31 126.12 242.43 117.12 337.78 117.12"/><polygon class="cls-2" points="345.74 103.11 340.63 112.11 245.28 112.11 250.39 103.11 345.74 103.11"/><polygon class="cls-2" points="353.72 89.09 348.6 98.09 253.25 98.09 258.37 89.09 353.72 89.09"/><polygon class="cls-2" points="361.69 75.08 356.57 84.08 261.22 84.08 266.34 75.08 361.69 75.08"/><polygon class="cls-2" points="369.66 61.06 364.54 70.06 269.19 70.06 274.31 61.06 369.66 61.06"/><polygon class="cls-2" points="377.63 47.05 372.51 56.05 277.16 56.05 282.28 47.05 377.63 47.05"/><polygon class="cls-2" points="385.6 33.03 380.48 42.03 285.13 42.03 290.25 33.03 385.6 33.03"/><polygon class="cls-2" points="393.57 19.02 388.45 28.02 293.1 28.02 298.22 19.02 393.57 19.02"/><polygon class="cls-2" points="401.55 5 396.43 14 301.08 14 306.2 5 401.55 5"/><polygon class="cls-1" points="100.6 5 94.92 5 97.76 0 100.6 5"/><polygon class="cls-1" points="108.58 19.02 86.94 19.02 89.8 14 105.72 14 108.58 19.02"/><polygon class="cls-1" points="116.55 33.03 78.97 33.03 81.82 28.02 113.7 28.02 116.55 33.03"/><polygon class="cls-1" points="124.52 47.05 71 47.05 73.85 42.03 121.67 42.03 124.52 47.05"/><polygon class="cls-1" points="132.49 61.06 63.03 61.06 65.88 56.05 129.64 56.05 132.49 61.06"/><polygon class="cls-1" points="140.46 75.08 55.06 75.08 57.91 70.06 137.61 70.06 140.46 75.08"/><polygon class="cls-1" points="148.43 89.09 47.09 89.09 49.94 84.08 145.58 84.08 148.43 89.09"/><polygon class="cls-1" points="156.41 103.11 39.11 103.11 41.97 98.09 153.55 98.09 156.41 103.11"/><polygon class="cls-1" points="164.37 117.12 31.15 117.12 34 112.11 161.52 112.11 164.37 117.12"/><polygon class="cls-1" points="172.35 131.14 23.17 131.14 26.03 126.12 169.49 126.12 172.35 131.14"/><polygon class="cls-1" points="180.32 145.15 15.2 145.15 18.05 140.14 177.47 140.14 180.32 145.15"/><polygon class="cls-1" points="188.29 159.17 7.23 159.17 10.08 154.15 185.44 154.15 188.29 159.17"/><text class="cls-3" transform="translate(0 232.77)">S<tspan class="cls-4" x="61.68" y="0">c</tspan><tspan x="113.64" y="0">hM</tspan><tspan class="cls-5" x="233.4" y="0">i</tspan><tspan x="261.54" y="0">nds</tspan></text></svg>