<svg id="Camada_1" data-name="Camada 1" xmlns="http://www.w3.org/2000/svg" viewBox="0 0 420.48 247.24"><defs><style>.cls-1{font-size:60px;font-family:Orbitron-Black, Orbitron;font-weight:800;letter-spacing:0.2em;}.cls-1,.cls-6{fill:#fff;}.cls-2{letter-spacing:0.17em;}.cls-3{letter-spacing:0.24em;}.cls-4{letter-spacing:0.2em;}.cls-5{fill:#d1cccb;}</style></defs><text class="cls-1" transform="translate(0 232.24)">S<tspan class="cls-2" x="61.68" y="0">c</tspan><tspan x="113.64" y="0">hM</tspan><tspan class="cls-3" x="233.4" y="0">i</tspan><tspan class="cls-4" x="261.54" y="0">nds</tspan></text><polygon class="cls-5" points="312.86 5 307.18 5 310.02 0 312.86 5"/><polygon class="cls-5" points="320.84 19.02 299.2 19.02 302.06 14 317.98 14 320.84 19.02"/><polygon class="cls-5" points="328.81 33.03 291.23 33.03 294.08 28.02 325.96 28.02 328.81 33.03"/><polygon class="cls-5" points="336.78 47.05 283.26 47.05 286.11 42.03 333.93 42.03 336.78 47.05"/><polygon class="cls-5" points="344.75 61.06 275.29 61.06 278.14 56.05 341.9 56.05 344.75 61.06"/><polygon class="cls-5" points="352.72 75.08 267.32 75.08 270.17 70.06 349.87 70.06 352.72 75.08"/><polygon class="cls-5" points="360.69 89.09 259.35 89.09 262.2 84.08 357.84 84.08 360.69 89.09"/><polygon class="cls-5" points="368.67 103.11 251.37 103.11 254.23 98.09 365.81 98.09 368.67 103.11"/><polygon class="cls-5" points="376.63 117.12 243.41 117.12 246.26 112.11 373.78 112.11 376.63 117.12"/><polygon class="cls-5" points="384.61 131.14 235.43 131.14 238.29 126.12 381.75 126.12 384.61 131.14"/><polygon class="cls-5" points="392.58 145.15 227.46 145.15 230.31 140.14 389.73 140.14 392.58 145.15"/><polygon class="cls-5" points="400.55 159.17 219.49 159.17 222.34 154.15 397.7 154.15 400.55 159.17"/><polygon class="cls-5" points="212.36 154.15 209.51 159.17 199.27 159.17 196.42 154.15 212.36 154.15"/><polygon class="cls-5" points="220.33 140.14 217.48 145.15 191.3 145.15 188.45 140.14 220.33 140.14"/><polygon class="cls-5" points="228.31 126.12 225.45 131.14 183.33 131.14 180.47 126.12 228.31 126.12"/><polygon class="cls-5" points="236.28 112.11 233.43 117.12 175.35 117.12 172.5 112.11 236.28 112.11"/><polygon class="cls-5" points="244.25 98.09 241.39 103.11 167.39 103.11 164.53 98.09 244.25 98.09"/><polygon class="cls-5" points="252.22 84.08 249.37 89.09 159.41 89.09 156.56 84.08 252.22 84.08"/><polygon class="cls-5" points="260.19 70.06 257.34 75.08 151.44 75.08 148.59 70.06 260.19 70.06"/><polygon class="cls-5" points="268.16 56.05 265.31 61.06 143.47 61.06 140.62 56.05 268.16 56.05"/><polygon class="cls-5" points="276.13 42.03 273.28 47.05 135.5 47.05 132.65 42.03 276.13 42.03"/><polygon class="cls-5" points="284.1 28.02 281.25 33.03 127.53 33.03 124.68 28.02 284.1 28.02"/><polygon class="cls-5" points="292.08 14 289.22 19.02 119.56 19.02 116.7 14 292.08 14"/><polygon class="cls-5" points="300.04 0 297.2 5 111.58 5 108.74 0 300.04 0"/><polygon class="cls-6" points="194.39 168.17 99.04 168.17 93.92 159.17 189.27 159.17 194.39 168.17"/><polygon class="cls-6" points="186.42 154.15 91.07 154.15 85.95 145.15 181.3 145.15 186.42 154.15"/><polygon class="cls-6" points="178.45 140.14 83.1 140.14 77.98 131.14 173.33 131.14 178.45 140.14"/><polygon class="cls-6" points="170.47 126.12 75.12 126.12 70 117.12 165.35 117.12 170.47 126.12"/><polygon class="cls-6" points="162.5 112.11 67.15 112.11 62.04 103.11 157.39 103.11 162.5 112.11"/><polygon class="cls-6" points="154.53 98.09 59.18 98.09 54.06 89.09 149.41 89.09 154.53 98.09"/><polygon class="cls-6" points="146.56 84.08 51.21 84.08 46.09 75.08 141.44 75.08 146.56 84.08"/><polygon class="cls-6" points="138.59 70.06 43.24 70.06 38.12 61.06 133.47 61.06 138.59 70.06"/><polygon class="cls-6" points="130.62 56.05 35.27 56.05 30.15 47.05 125.5 47.05 130.62 56.05"/><polygon class="cls-6" points="122.65 42.03 27.3 42.03 22.18 33.03 117.53 33.03 122.65 42.03"/><polygon class="cls-6" points="114.68 28.02 19.33 28.02 14.21 19.02 109.56 19.02 114.68 28.02"/><polygon class="cls-6" points="106.7 14 11.35 14 6.23 5 101.58 5 106.7 14"/><polygon class="cls-6" points="314.86 159.17 309.74 168.17 214.39 168.17 219.51 159.17 314.86 159.17"/><polygon class="cls-6" points="322.83 145.15 317.71 154.15 222.36 154.15 227.48 145.15 322.83 145.15"/><polygon class="cls-6" points="330.8 131.14 325.68 140.14 230.33 140.14 235.45 131.14 330.8 131.14"/><polygon class="cls-6" points="338.78 117.12 333.66 126.12 238.31 126.12 243.43 117.12 338.78 117.12"/><polygon class="cls-6" points="346.74 103.11 341.63 112.11 246.28 112.11 251.39 103.11 346.74 103.11"/><polygon class="cls-6" points="354.72 89.09 349.6 98.09 254.25 98.09 259.37 89.09 354.72 89.09"/><polygon class="cls-6" points="362.69 75.08 357.57 84.08 262.22 84.08 267.34 75.08 362.69 75.08"/><polygon class="cls-6" points="370.66 61.06 365.54 70.06 270.19 70.06 275.31 61.06 370.66 61.06"/><polygon class="cls-6" points="378.63 47.05 373.51 56.05 278.16 56.05 283.28 47.05 378.63 47.05"/><polygon class="cls-6" points="386.6 33.03 381.48 42.03 286.13 42.03 291.25 33.03 386.6 33.03"/><polygon class="cls-6" points="394.57 19.02 389.45 28.02 294.1 28.02 299.22 19.02 394.57 19.02"/><polygon class="cls-6" points="402.55 5 397.43 14 302.08 14 307.2 5 402.55 5"/><polygon class="cls-5" points="101.6 5 95.92 5 98.76 0 101.6 5"/><polygon class="cls-5" points="109.58 19.02 87.94 19.02 90.8 14 106.72 14 109.58 19.02"/><polygon class="cls-5" points="117.55 33.03 79.97 33.03 82.82 28.02 114.7 28.02 117.55 33.03"/><polygon class="cls-5" points="125.52 47.05 72 47.05 74.85 42.03 122.67 42.03 125.52 47.05"/><polygon class="cls-5" points="133.49 61.06 64.03 61.06 66.88 56.05 130.64 56.05 133.49 61.06"/><polygon class="cls-5" points="141.46 75.08 56.06 75.08 58.91 70.06 138.61 70.06 141.46 75.08"/><polygon class="cls-5" points="149.43 89.09 48.09 89.09 50.94 84.08 146.58 84.08 149.43 89.09"/><polygon class="cls-5" points="157.41 103.11 40.11 103.11 42.97 98.09 154.55 98.09 157.41 103.11"/><polygon class="cls-5" points="165.37 117.12 32.15 117.12 35 112.11 162.52 112.11 165.37 117.12"/><polygon class="cls-5" points="173.35 131.14 24.17 131.14 27.03 126.12 170.49 126.12 173.35 131.14"/><polygon class="cls-5" points="181.32 145.15 16.2 145.15 19.05 140.14 178.47 140.14 181.32 145.15"/><polygon class="cls-5" points="189.29 159.17 8.23 159.17 11.08 154.15 186.44 154.15 189.29 159.17"/></svg>